<svg width="268" height="268" viewBox="0 0 268 268" fill="none" xmlns="http://www.w3.org/2000/svg">
<g clip-path="url(#clip0_4_11)">
<path fill-rule="evenodd" clip-rule="evenodd" d="M120.085 43.55C123.538 43.3921 126.973 43.5516 130.392 44.0286C131.255 44.9965 131.598 46.1131 131.423 47.3786C131.179 48.6142 131.522 49.5714 132.454 50.25C132.647 52.8481 133.85 53.4861 136.062 52.1643C138.107 52.9676 139.996 53.9248 141.731 55.0357C143.647 59.5071 146.224 59.8261 149.462 55.9929C149.972 57.881 150.144 59.7953 149.977 61.7357C151.965 61.4781 153.683 61.9566 155.131 63.1714C149.113 63.3208 143.616 64.1184 138.638 65.5643C136.855 65.0612 135.48 64.1041 134.515 62.6929C134.656 59.7983 133.281 58.3626 130.392 58.3857C129.006 62.0027 129.692 65.3527 132.454 68.4357C131.938 68.7547 131.423 69.0738 130.908 69.3929C129.052 68.6085 127.162 67.9704 125.238 67.4786C121.47 61.7624 117.691 56.0196 113.9 50.25C117.463 49.1773 119.525 46.944 120.085 43.55Z" fill="#020335"/>
<path fill-rule="evenodd" clip-rule="evenodd" d="M138.638 65.5643C143.616 64.1184 149.113 63.3208 155.131 63.1714C153.683 61.9566 151.965 61.478 149.977 61.7357C150.144 59.7953 149.972 57.881 149.462 55.9929C146.224 59.8261 143.647 59.5071 141.731 55.0357C139.996 53.9248 138.107 52.9676 136.062 52.1643C133.85 53.4861 132.647 52.8481 132.454 50.25C133.73 51.1233 135.105 51.2829 136.577 50.7286C142.403 45.5027 146.183 39.2812 147.915 32.0643C145.403 31.819 142.998 31.1809 140.7 30.15C139.039 30.935 138.352 32.2113 138.638 33.9786C141.868 34.2285 143.071 35.8237 142.246 38.7643C140.609 42.3568 137.689 44.2711 133.485 44.5071C133.029 45.6928 132.341 46.6499 131.423 47.3786C131.598 46.1131 131.255 44.9965 130.392 44.0286C126.973 43.5516 123.538 43.3921 120.085 43.55C119.859 42.4254 120.202 41.4682 121.115 40.6786C126.179 42.7529 131.332 42.7529 136.577 40.6786C138.576 39.1259 138.919 37.3712 137.608 35.4143C133.686 34.9029 129.907 33.9457 126.269 32.5429C122.949 31.7805 119.857 32.2591 116.992 33.9786C113.93 38.5762 110.665 43.0429 107.2 47.3786C105.132 50.2843 104.273 53.4747 104.623 56.95C102.813 55.943 102.126 54.3477 102.562 52.1643C101.531 52.1643 100.5 52.1643 99.4692 52.1643C99.4692 54.3976 99.4692 56.631 99.4692 58.8643C98.3002 56.5036 98.1285 53.9513 98.9539 51.2071C103.764 44.8262 108.574 38.4453 113.385 32.0643C115.931 30.2098 118.852 29.0931 122.146 28.7143C123.322 26.5053 125.041 24.7505 127.3 23.45C134.82 25.9373 142.379 28.3302 149.977 30.6286C152.478 33.9137 155.399 36.9447 158.738 39.7214C159.244 40.9592 159.416 42.2355 159.254 43.55C163.407 44.6887 166.499 47.0816 168.531 50.7286C165.209 61.3113 162.288 71.9994 159.769 82.7929C157.364 86.3024 154.959 89.8119 152.554 93.3214C148.91 103.152 145.475 113.043 142.246 122.993C142.85 111.798 144.053 100.631 145.854 89.4929C148.749 86.6189 152.013 84.0665 155.646 81.8357C157.405 76.1836 158.608 70.4407 159.254 64.6071C154.443 64.6071 149.634 64.6071 144.823 64.6071C145.741 67.552 146.6 70.4234 147.4 73.2214C143.964 71.1472 141.044 68.5948 138.638 65.5643Z" fill="#0E1335"/>
<path fill-rule="evenodd" clip-rule="evenodd" d="M158.223 47.3786C163.017 48.0239 164.563 50.5762 162.862 55.0357C160.108 60.4108 156.157 61.6871 151.008 58.8643C153.469 55.0028 155.875 51.1742 158.223 47.3786Z" fill="#F1F2F6"/>
<path fill-rule="evenodd" clip-rule="evenodd" d="M141.731 55.0357C143.378 50.0577 145.612 45.272 148.431 40.6786C151.837 38.0854 154.587 38.7234 156.677 42.5929C154.639 47.7729 151.375 52.3991 146.885 56.4714C145.048 56.588 143.331 56.1094 141.731 55.0357Z" fill="#F0F0F6"/>
<path fill-rule="evenodd" clip-rule="evenodd" d="M132.454 50.25C131.522 49.5714 131.179 48.6142 131.423 47.3786C132.341 46.6499 133.029 45.6928 133.485 44.5071C137.689 44.2711 140.609 42.3568 142.246 38.7643C143.071 35.8237 141.868 34.2285 138.638 33.9786C138.352 32.2113 139.039 30.935 140.7 30.15C142.998 31.1809 145.403 31.819 147.915 32.0643C146.183 39.2812 142.403 45.5027 136.577 50.7286C135.105 51.2829 133.73 51.1233 132.454 50.25Z" fill="#EDEFF5"/>
<path fill-rule="evenodd" clip-rule="evenodd" d="M127.3 27.2786C130.049 27.5976 132.797 27.9167 135.546 28.2357C135.546 29.5119 135.546 30.7881 135.546 32.0643C132.647 32.0182 129.899 31.3802 127.3 30.15C126.205 29.265 126.205 28.3079 127.3 27.2786Z" fill="#E5E7F0"/>
<path fill-rule="evenodd" clip-rule="evenodd" d="M134.515 62.6929C133.182 61.9368 131.979 60.9797 130.908 59.8214C134.157 68.7547 137.764 77.688 141.731 86.6214C137.608 88.2167 133.485 89.8119 129.362 91.4071C124.781 101.51 120.486 111.72 116.477 122.036C118.9 109.841 121.993 97.7166 125.754 85.6643C129.27 84.9052 132.877 84.4266 136.577 84.2286C132.657 78.699 128.878 73.1157 125.238 67.4786C127.162 67.9704 129.052 68.6085 130.908 69.3929C131.423 69.0738 131.938 68.7547 132.454 68.4357C129.692 65.3527 129.006 62.0027 130.392 58.3857C133.281 58.3625 134.656 59.7983 134.515 62.6929Z" fill="#0B0F35"/>
<path fill-rule="evenodd" clip-rule="evenodd" d="M94.3154 200.521C111.764 179.208 129.632 158.151 147.915 137.35C137.951 136.712 127.988 136.074 118.023 135.436C134.144 132.939 150.293 130.866 166.469 129.214C142.933 153.462 118.882 177.23 94.3154 200.521Z" fill="#0A0E34"/>
<path fill-rule="evenodd" clip-rule="evenodd" d="M118.023 135.436C127.988 136.074 137.951 136.712 147.915 137.35C135.198 137.51 122.485 137.35 109.777 136.871C112.527 136.329 115.275 135.85 118.023 135.436Z" fill="#4D4C6B"/>
<path fill-rule="evenodd" clip-rule="evenodd" d="M104.623 56.95C109.014 65.4266 113.137 74.0408 116.992 82.7929C106.235 107.816 95.5841 132.862 85.0385 157.929C93.9652 158.407 102.898 158.566 111.838 158.407C101.399 177.153 90.4045 195.657 78.8538 213.921C77.231 214.34 76.0284 215.297 75.2462 216.793C75.0743 216.154 74.9026 215.517 74.7308 214.879C75.9141 211.443 76.6013 207.934 76.7923 204.35C78.4432 198.156 80.5047 192.095 82.9769 186.164C84.0048 186.193 84.692 185.714 85.0385 184.729C87.2019 178.861 89.2635 172.959 91.2231 167.021C90.7916 165.9 90.1044 164.943 89.1615 164.15C84.4199 165.053 79.6096 165.372 74.7308 165.107C74.7308 163.831 74.7308 162.554 74.7308 161.279C86.4078 134.815 98.09 108.334 109.777 81.8357C106.331 74.163 102.895 66.5058 99.4692 58.8643C99.4692 56.631 99.4692 54.3976 99.4692 52.1643C100.5 52.1643 101.531 52.1643 102.562 52.1643C102.126 54.3477 102.813 55.943 104.623 56.95Z" fill="#040835"/>
<path fill-rule="evenodd" clip-rule="evenodd" d="M74.7308 161.279C74.7308 162.554 74.7308 163.831 74.7308 165.107C79.6096 165.372 84.4199 165.053 89.1615 164.15C90.1044 164.943 90.7916 165.9 91.2231 167.021C89.2635 172.959 87.2019 178.861 85.0385 184.729C84.692 185.714 84.0048 186.193 82.9769 186.164C85.0409 179.772 87.1025 173.391 89.1615 167.021C83.6641 167.021 78.1666 167.021 72.6692 167.021C72.7672 164.833 73.4543 162.919 74.7308 161.279Z" fill="#161939"/>
<path fill-rule="evenodd" clip-rule="evenodd" d="M76.7923 204.35C76.6013 207.934 75.9141 211.443 74.7308 214.879C74.9026 215.517 75.0743 216.154 75.2461 216.793C76.0284 215.297 77.231 214.34 78.8538 213.921C75.2587 219.957 71.651 226.02 68.0308 232.107C67.3563 233.252 66.8409 233.252 66.4846 232.107C69.5388 222.639 72.9747 213.386 76.7923 204.35Z" fill="#191A39"/>
<!-- <path fill-rule="evenodd" clip-rule="evenodd" d="M126.269 257.95C129.734 258.623 130.077 259.9 127.3 261.779C126.342 260.641 125.999 259.365 126.269 257.95Z" fill="#F6F6F6"/> -->
<!-- <path fill-rule="evenodd" clip-rule="evenodd" d="M111.838 257.95C115.303 258.623 115.646 259.9 112.869 261.779C111.912 260.641 111.568 259.365 111.838 257.95Z" fill="#F6F6F6"/> -->
<!-- <path fill-rule="evenodd" clip-rule="evenodd" d="M105.654 257.95C106.773 258.065 107.461 258.703 107.715 259.864C107.372 260.503 107.028 261.14 106.685 261.779C105.727 260.641 105.384 259.365 105.654 257.95Z" fill="#F5F5F5"/> -->
<path d="M144.208 185.712C142.264 185.712 140.692 185.064 139.492 183.768C138.292 182.472 137.404 180.516 136.828 177.9L138.052 177.576C138.604 178.896 139.216 179.88 139.888 180.528C140.584 181.152 141.484 181.464 142.588 181.464C143.5 181.464 144.316 181.26 145.036 180.852C145.756 180.444 146.32 179.892 146.728 179.196C147.16 178.476 147.376 177.684 147.376 176.82C147.376 175.908 147.112 175.452 146.584 175.452C146.176 175.452 145.672 175.524 145.072 175.668C144.496 175.812 143.92 175.956 143.344 176.1C142.768 176.244 142.3 176.316 141.94 176.316C141.46 176.316 140.956 176.088 140.428 175.632C139.9 175.152 139.408 174.528 138.952 173.76C138.496 172.968 138.124 172.128 137.836 171.24C137.572 170.328 137.44 169.44 137.44 168.576C137.44 166.656 137.956 165.204 138.988 164.22C140.044 163.212 141.472 162.708 143.272 162.708C146.344 162.708 148.408 164.688 149.464 168.648L148.24 168.972C147.856 168.156 147.328 167.568 146.656 167.208C145.984 166.848 145.228 166.668 144.388 166.668C143.068 166.668 142.036 167.028 141.292 167.748C140.572 168.468 140.212 169.512 140.212 170.88C140.212 171.336 140.284 171.66 140.428 171.852C140.596 172.044 140.776 172.14 140.968 172.14C141.448 172.14 142 172.044 142.624 171.852C143.272 171.66 143.896 171.48 144.496 171.312C145.12 171.12 145.624 171.024 146.008 171.024C146.512 171.024 147.052 171.372 147.628 172.068C148.204 172.74 148.696 173.652 149.104 174.804C149.536 175.956 149.752 177.228 149.752 178.62C149.752 180.852 149.308 182.592 148.42 183.84C147.532 185.088 146.128 185.712 144.208 185.712ZM157.212 186.072C155.676 185.496 154.488 184.98 153.648 184.524C152.832 184.044 152.424 183.612 152.424 183.228C152.424 182.892 152.46 182.376 152.532 181.68C152.628 180.96 152.676 180.264 152.676 179.592V169.908C152.676 168.468 152.724 167.148 152.82 165.948C152.94 164.724 153.084 163.74 153.252 162.996H151.704L149.724 160.656L149.976 160.08H154.656L156.78 162.816C156.612 163.752 156.48 164.82 156.384 166.02C156.288 167.196 156.24 168.396 156.24 169.62V174.516C156.456 174.588 156.756 174.624 157.14 174.624C157.908 174.624 158.508 174.492 158.94 174.228C159.372 173.964 159.828 173.556 160.308 173.004C160.596 172.668 160.836 172.356 161.028 172.068C161.244 171.756 161.412 171.492 161.532 171.276H160.2L158.508 168.792L158.76 168.216H162.792L164.808 171.276C164.616 171.732 164.376 172.236 164.088 172.788C163.824 173.316 163.536 173.784 163.224 174.192C162.432 175.272 161.7 176.052 161.028 176.532C161.892 176.916 162.672 177.372 163.368 177.9C164.064 178.428 164.412 178.992 164.412 179.592C164.412 179.904 164.4 180.3 164.376 180.78C164.376 181.26 164.364 181.74 164.34 182.22C164.316 182.676 164.304 183.048 164.304 183.336C164.304 183.744 164.436 184.08 164.7 184.344C164.988 184.608 165.42 184.932 165.996 185.316L165.42 186.252C163.884 185.532 162.708 184.968 161.892 184.56C161.076 184.128 160.668 183.732 160.668 183.372C160.668 183.06 160.68 182.652 160.704 182.148C160.728 181.644 160.752 181.116 160.776 180.564C160.8 180.012 160.812 179.532 160.812 179.124C160.812 178.764 160.536 178.404 159.984 178.044C159.456 177.66 158.592 177.384 157.392 177.216L156.24 177.072V179.988C156.24 180.852 156.204 181.62 156.132 182.292C156.06 182.94 156.024 183.432 156.024 183.768C156.024 184.008 156.108 184.2 156.276 184.344C156.468 184.464 156.924 184.716 157.644 185.1L157.212 186.072ZM161.748 170.808L161.604 171.132C161.652 171.012 161.7 170.904 161.748 170.808ZM170.23 165.804L167.854 163.248V162.888C168.502 162.024 169.378 161.268 170.482 160.62L172.858 163.104L172.822 163.536C172.342 163.872 171.886 164.244 171.454 164.652C171.046 165.06 170.638 165.444 170.23 165.804ZM173.434 186.072C171.898 185.496 170.71 184.98 169.87 184.524C169.054 184.044 168.646 183.612 168.646 183.228C168.646 182.892 168.682 182.376 168.754 181.68C168.85 180.96 168.898 180.264 168.898 179.592V174.444C168.898 173.82 168.922 173.244 168.97 172.716C169.042 172.164 169.15 171.684 169.294 171.276H168.106L166.198 168.828L166.45 168.216H171.058L173.146 171.024C172.858 171.408 172.666 171.888 172.57 172.464C172.498 173.04 172.462 173.772 172.462 174.66V179.988C172.462 180.852 172.426 181.62 172.354 182.292C172.282 182.94 172.246 183.432 172.246 183.768C172.246 184.008 172.33 184.2 172.498 184.344C172.69 184.464 173.146 184.716 173.866 185.1L173.434 186.072ZM181.4 186.072C179.864 185.496 178.676 184.98 177.836 184.524C177.02 184.044 176.612 183.612 176.612 183.228C176.612 182.892 176.648 182.376 176.72 181.68C176.816 180.96 176.864 180.264 176.864 179.592V169.908C176.864 168.468 176.912 167.148 177.008 165.948C177.128 164.724 177.272 163.74 177.44 162.996H175.892L173.912 160.656L174.164 160.08H178.844L180.968 162.816C180.8 163.752 180.668 164.82 180.572 166.02C180.476 167.196 180.428 168.396 180.428 169.62V179.988C180.428 180.852 180.392 181.62 180.32 182.292C180.248 182.94 180.212 183.432 180.212 183.768C180.212 184.008 180.296 184.2 180.464 184.344C180.656 184.464 181.112 184.716 181.832 185.1L181.4 186.072ZM189.204 186.072C187.668 185.496 186.48 184.98 185.64 184.524C184.824 184.044 184.416 183.612 184.416 183.228C184.416 182.892 184.452 182.376 184.524 181.68C184.62 180.96 184.668 180.264 184.668 179.592V169.908C184.668 168.468 184.716 167.148 184.812 165.948C184.932 164.724 185.076 163.74 185.244 162.996H183.696L181.716 160.656L181.968 160.08H186.648L188.772 162.816C188.604 163.752 188.472 164.82 188.376 166.02C188.28 167.196 188.232 168.396 188.232 169.62V179.988C188.232 180.852 188.196 181.62 188.124 182.292C188.052 182.94 188.016 183.432 188.016 183.768C188.016 184.008 188.1 184.2 188.268 184.344C188.46 184.464 188.916 184.716 189.636 185.1L189.204 186.072Z" fill="#020335"/>
<path d="M116.208 213.712C114.264 213.712 112.692 213.064 111.492 211.768C110.292 210.472 109.404 208.516 108.828 205.9L110.052 205.576C110.604 206.896 111.216 207.88 111.888 208.528C112.584 209.152 113.484 209.464 114.588 209.464C115.5 209.464 116.316 209.26 117.036 208.852C117.756 208.444 118.32 207.892 118.728 207.196C119.16 206.476 119.376 205.684 119.376 204.82C119.376 203.908 119.112 203.452 118.584 203.452C118.176 203.452 117.672 203.524 117.072 203.668C116.496 203.812 115.92 203.956 115.344 204.1C114.768 204.244 114.3 204.316 113.94 204.316C113.46 204.316 112.956 204.088 112.428 203.632C111.9 203.152 111.408 202.528 110.952 201.76C110.496 200.968 110.124 200.128 109.836 199.24C109.572 198.328 109.44 197.44 109.44 196.576C109.44 194.656 109.956 193.204 110.988 192.22C112.044 191.212 113.472 190.708 115.272 190.708C118.344 190.708 120.408 192.688 121.464 196.648L120.24 196.972C119.856 196.156 119.328 195.568 118.656 195.208C117.984 194.848 117.228 194.668 116.388 194.668C115.068 194.668 114.036 195.028 113.292 195.748C112.572 196.468 112.212 197.512 112.212 198.88C112.212 199.336 112.284 199.66 112.428 199.852C112.596 200.044 112.776 200.14 112.968 200.14C113.448 200.14 114 200.044 114.624 199.852C115.272 199.66 115.896 199.48 116.496 199.312C117.12 199.12 117.624 199.024 118.008 199.024C118.512 199.024 119.052 199.372 119.628 200.068C120.204 200.74 120.696 201.652 121.104 202.804C121.536 203.956 121.752 205.228 121.752 206.62C121.752 208.852 121.308 210.592 120.42 211.84C119.532 213.088 118.128 213.712 116.208 213.712ZM131.516 213.748C130.94 213.748 130.232 213.604 129.392 213.316C128.552 213.004 127.712 212.608 126.872 212.128C126.056 211.624 125.372 211.084 124.82 210.508C124.268 209.908 123.992 209.32 123.992 208.744C123.992 208.168 124.028 207.172 124.1 205.756C124.196 204.34 124.244 202.648 124.244 200.68C124.244 197.56 125.948 196 129.356 196C129.884 196 130.496 196.168 131.192 196.504C131.888 196.816 132.56 197.236 133.208 197.764C133.856 198.268 134.396 198.796 134.828 199.348C135.26 199.9 135.476 200.416 135.476 200.896V203.848C135.476 205.792 134.396 206.764 132.236 206.764C131.564 206.764 130.796 206.728 129.932 206.656C129.068 206.56 128.3 206.452 127.628 206.332C127.604 207.124 127.58 207.844 127.556 208.492C127.556 209.116 127.556 209.476 127.556 209.572C127.556 209.956 127.652 210.232 127.844 210.4C128.036 210.568 128.384 210.652 128.888 210.652C129.632 210.652 130.436 210.544 131.3 210.328C132.188 210.088 132.98 209.74 133.676 209.284H134.216L136.16 212.236C135.704 212.668 135.02 213.028 134.108 213.316C133.22 213.604 132.356 213.748 131.516 213.748ZM127.736 201.832C127.736 202.024 127.724 202.312 127.7 202.696C127.7 203.08 127.7 203.512 127.7 203.992C128.396 204.064 129.2 204.1 130.112 204.1C130.808 204.1 131.288 203.932 131.552 203.596C131.84 203.236 131.984 202.696 131.984 201.976V200.032C131.984 199.768 131.912 199.54 131.768 199.348C131.624 199.156 131.312 199.06 130.832 199.06C129.872 199.06 129.116 199.264 128.564 199.672C128.012 200.056 127.736 200.776 127.736 201.832ZM144.532 213.712C144.172 213.712 143.68 213.58 143.056 213.316C142.432 213.028 141.796 212.668 141.148 212.236C140.5 211.78 139.948 211.312 139.492 210.832C139.036 210.328 138.808 209.848 138.808 209.392C138.808 209.128 138.82 208.852 138.844 208.564C138.868 208.276 138.904 207.904 138.952 207.448C139 206.968 139.036 206.332 139.06 205.54C139.084 204.748 139.096 203.716 139.096 202.444C139.096 201.964 139.096 201.46 139.096 200.932C139.096 200.404 139.084 199.852 139.06 199.276H138.412L136.576 196.864L136.828 196.288C138.1 196.144 138.904 195.76 139.24 195.136C139.576 194.512 139.744 193.564 139.744 192.292L140.356 192.076L142.552 193.732C142.552 194.164 142.552 194.584 142.552 194.992C142.552 195.4 142.552 195.808 142.552 196.216H145.612L147.412 198.736L147.16 199.276H142.588C142.588 200.14 142.588 200.968 142.588 201.76C142.588 202.552 142.588 203.308 142.588 204.028C142.588 205.42 142.564 206.488 142.516 207.232C142.492 207.976 142.456 208.528 142.408 208.888C142.36 209.248 142.336 209.584 142.336 209.896C142.336 210.376 142.588 210.616 143.092 210.616C143.524 210.616 143.992 210.508 144.496 210.292C145 210.052 145.468 209.764 145.9 209.428H146.404L148.096 212.236C147.76 212.644 147.232 212.992 146.512 213.28C145.792 213.568 145.132 213.712 144.532 213.712Z" fill="#020335"/>
</g>
<defs>
<clipPath id="clip0_4_11">
<rect width="268" height="268" fill="white"/>
</clipPath>
</defs>
</svg>
